<svg width="30" height="30" viewBox="0 0 30 30" fill="none" xmlns="http://www.w3.org/2000/svg">
<g clip-path="url(#clip0_2_183)">
<path d="M2.8125 6.09375H27.6562V24.375H2.8125V6.09375Z" fill="#23A8CC"/>
<path d="M24.8438 6.09375V0.46875L2.8125 4.21875V6.09375H24.8438Z" fill="#1D7D9F"/>
<path d="M5.625 29.5678C8.49291 29.5678 10.8178 27.2429 10.8178 24.375C10.8178 21.5071 8.49291 19.1822 5.625 19.1822C2.75709 19.1822 0.43219 21.5071 0.43219 24.375C0.43219 27.2429 2.75709 29.5678 5.625 29.5678Z" fill="#6A951F"/>
<path d="M7.96875 23.9062H6.09375V22.0312C6.09375 21.9069 6.04436 21.7877 5.95646 21.6998C5.86855 21.6119 5.74932 21.5625 5.625 21.5625C5.50068 21.5625 5.38145 21.6119 5.29354 21.6998C5.20564 21.7877 5.15625 21.9069 5.15625 22.0312V23.9062H3.28125C3.15693 23.9062 3.0377 23.9556 2.94979 24.0435C2.86189 24.1315 2.8125 24.2507 2.8125 24.375C2.8125 24.4993 2.86189 24.6185 2.94979 24.7065C3.0377 24.7944 3.15693 24.8438 3.28125 24.8438H5.15625V26.7188C5.15625 26.8431 5.20564 26.9623 5.29354 27.0502C5.38145 27.1381 5.50068 27.1875 5.625 27.1875C5.74932 27.1875 5.86855 27.1381 5.95646 27.0502C6.04436 26.9623 6.09375 26.8431 6.09375 26.7188V24.8438H7.96875C8.09307 24.8438 8.2123 24.7944 8.30021 24.7065C8.38811 24.6185 8.4375 24.4993 8.4375 24.375C8.4375 24.2507 8.38811 24.1315 8.30021 24.0435C8.2123 23.9556 8.09307 23.9062 7.96875 23.9062Z" fill="#FBE41A"/>
<path d="M15.4688 22.9688H15C14.8757 22.9688 14.7565 22.9194 14.6685 22.8315C14.5806 22.7435 14.5312 22.6243 14.5312 22.5C14.5312 22.3757 14.5806 22.2565 14.6685 22.1685C14.7565 22.0806 14.8757 22.0312 15 22.0312H15.4688C15.5931 22.0312 15.7123 22.0806 15.8002 22.1685C15.8881 22.2565 15.9375 22.3757 15.9375 22.5C15.9375 22.6243 15.8881 22.7435 15.8002 22.8315C15.7123 22.9194 15.5931 22.9688 15.4688 22.9688Z" fill="#9EDFE0"/>
<path d="M17.3438 22.9688H16.875C16.7507 22.9688 16.6315 22.9194 16.5435 22.8315C16.4556 22.7435 16.4062 22.6243 16.4062 22.5C16.4062 22.3757 16.4556 22.2565 16.5435 22.1685C16.6315 22.0806 16.7507 22.0312 16.875 22.0312H17.3438C17.4681 22.0312 17.5873 22.0806 17.6752 22.1685C17.7631 22.2565 17.8125 22.3757 17.8125 22.5C17.8125 22.6243 17.7631 22.7435 17.6752 22.8315C17.5873 22.9194 17.4681 22.9688 17.3438 22.9688Z" fill="#9EDFE0"/>
<path d="M13.5938 22.9688H13.125C13.0007 22.9688 12.8815 22.9194 12.7935 22.8315C12.7056 22.7435 12.6562 22.6243 12.6562 22.5C12.6562 22.3757 12.7056 22.2565 12.7935 22.1685C12.8815 22.0806 13.0007 22.0312 13.125 22.0312H13.5938C13.7181 22.0312 13.8373 22.0806 13.9252 22.1685C14.0131 22.2565 14.0625 22.3757 14.0625 22.5C14.0625 22.6243 14.0131 22.7435 13.9252 22.8315C13.8373 22.9194 13.7181 22.9688 13.5938 22.9688Z" fill="#9EDFE0"/>
<path d="M23.9062 8.4375H23.4375C23.3132 8.4375 23.194 8.38811 23.106 8.30021C23.0181 8.2123 22.9688 8.09307 22.9688 7.96875C22.9688 7.84443 23.0181 7.7252 23.106 7.63729C23.194 7.54939 23.3132 7.5 23.4375 7.5H23.9062C24.0306 7.5 24.1498 7.54939 24.2377 7.63729C24.3256 7.7252 24.375 7.84443 24.375 7.96875C24.375 8.09307 24.3256 8.2123 24.2377 8.30021C24.1498 8.38811 24.0306 8.4375 23.9062 8.4375Z" fill="#9EDFE0"/>
<path d="M25.7812 8.4375H25.3125C25.1882 8.4375 25.069 8.38811 24.981 8.30021C24.8931 8.2123 24.8438 8.09307 24.8438 7.96875C24.8438 7.84443 24.8931 7.7252 24.981 7.63729C25.069 7.54939 25.1882 7.5 25.3125 7.5H25.7812C25.9056 7.5 26.0248 7.54939 26.1127 7.63729C26.2006 7.7252 26.25 7.84443 26.25 7.96875C26.25 8.09307 26.2006 8.2123 26.1127 8.30021C26.0248 8.38811 25.9056 8.4375 25.7812 8.4375Z" fill="#9EDFE0"/>
<path d="M22.0312 8.4375H21.5625C21.4382 8.4375 21.319 8.38811 21.231 8.30021C21.1431 8.2123 21.0938 8.09307 21.0938 7.96875C21.0938 7.84443 21.1431 7.7252 21.231 7.63729C21.319 7.54939 21.4382 7.5 21.5625 7.5H22.0312C22.1556 7.5 22.2748 7.54939 22.3627 7.63729C22.4506 7.7252 22.5 7.84443 22.5 7.96875C22.5 8.09307 22.4506 8.2123 22.3627 8.30021C22.2748 8.38811 22.1556 8.4375 22.0312 8.4375Z" fill="#9EDFE0"/>
<path d="M22.0312 11.7188H29.5312V18.2812H22.0312V11.7188Z" fill="#EFC925"/>
<path d="M25.7812 15.9375C26.299 15.9375 26.7188 15.5178 26.7188 15C26.7188 14.4822 26.299 14.0625 25.7812 14.0625C25.2635 14.0625 24.8438 14.4822 24.8438 15C24.8438 15.5178 25.2635 15.9375 25.7812 15.9375Z" fill="#1D7D9F"/>
<g opacity="0.2">
<path opacity="0.2" d="M22.0312 18.2812H27.6562V19.2188H22.0312V18.2812Z" fill="black"/>
</g>
<g opacity="0.2">
<path opacity="0.2" d="M5.625 19.1822C4.83872 19.1796 4.06218 19.3562 3.35434 19.6985C2.64651 20.0409 2.02599 20.5401 1.5399 21.1581C1.0538 21.7761 0.71492 22.4968 0.548977 23.2654C0.383033 24.0339 0.394392 24.8302 0.58219 25.5937C2.35272 25.7715 4.13104 25.3417 5.625 24.375C6.35384 23.8508 7.1905 23.4959 8.07395 23.3362C8.9574 23.1766 9.86535 23.2161 10.7316 23.452C10.5157 22.2547 9.88611 21.1713 8.95277 20.3909C8.01943 19.6104 6.84162 19.1827 5.625 19.1822Z" fill="white"/>
</g>
<g opacity="0.2">
<path opacity="0.2" d="M2.8125 13.1634C10.6468 9.84869 19.2048 8.6152 27.6562 9.58266V6.09375H2.8125V13.1634Z" fill="white"/>
</g>
<g opacity="0.2">
<path opacity="0.2" d="M2.8125 5.27344L24.8438 3.75V6.09375H2.8125V5.27344Z" fill="black"/>
</g>
</g>
<defs>
<clipPath id="clip0_2_183">
<rect width="30" height="30" fill="white"/>
</clipPath>
</defs>
</svg>
