<svg width="38" height="45" viewBox="0 0 38 45" fill="none" xmlns="http://www.w3.org/2000/svg">
<g clip-path="url(#clip0_121_2)">
<path d="M36.3773 22.0411L25.1577 11.412C21.7544 8.19601 16.2458 8.19601 12.8425 11.412L1.62297 22.0411C0.580339 23.0236 -0.0040608 24.3604 2.12419e-05 25.7537V41.321C0.00350953 43.353 1.74231 44.9989 3.88717 45.0006H34.1131C36.2579 44.9989 37.9967 43.353 38.0001 41.321V25.7537C38.0043 24.3604 37.4199 23.0236 36.3773 22.0411ZM33.2501 40.5005H25.3335V35.7274C25.3335 32.5644 22.6269 30.0002 19.2883 30.0002H18.712C15.3733 30.0002 12.6668 32.5644 12.6668 35.7274V40.5005H4.75004V25.7537C4.75056 25.5548 4.83353 25.3641 4.98123 25.2227L16.2008 14.5935C17.7464 13.1288 20.2527 13.1285 21.7987 14.5928C21.799 14.593 21.7992 14.5933 21.7995 14.5935L33.019 25.2227C33.1666 25.3641 33.2497 25.5548 33.2502 25.7537V40.5005H33.2501Z" fill="black"/>
</g>
<defs>
<clipPath id="clip0_121_2">
<rect width="38" height="45" fill="white"/>
</clipPath>
</defs>
</svg>
