<svg width="38" height="45" viewBox="0 0 38 45" fill="none" xmlns="http://www.w3.org/2000/svg">
<g clip-path="url(#clip0_121_5)">
<path d="M35.9623 7.64438C35.5169 7.01145 34.9593 6.50241 34.3291 6.1534C33.6989 5.8044 33.0115 5.62399 32.3158 5.625H6.7165L6.65 4.96687C6.51391 3.59891 5.95869 2.33762 5.08961 1.42215C4.22053 0.506669 3.09799 0.000640863 1.93483 0L1.58333 0C1.16341 0 0.76068 0.197544 0.463748 0.549175C0.166815 0.900806 0 1.37772 0 1.875C0 2.37228 0.166815 2.84919 0.463748 3.20083C0.76068 3.55246 1.16341 3.75 1.58333 3.75H1.93483C2.32264 3.75006 2.69695 3.91867 2.98676 4.22384C3.27656 4.52901 3.46171 4.94953 3.50708 5.40562L5.68575 27.3431C5.91193 29.6246 6.83759 31.7283 8.28702 33.255C9.73645 34.7817 11.6088 35.625 13.5486 35.625H30.0833C30.5033 35.625 30.906 35.4275 31.2029 35.0758C31.4999 34.7242 31.6667 34.2473 31.6667 33.75C31.6667 33.2527 31.4999 32.7758 31.2029 32.4242C30.906 32.0725 30.5033 31.875 30.0833 31.875H13.5486C12.5686 31.8717 11.6134 31.5096 10.8141 30.8382C10.0147 30.1669 9.41025 29.2192 9.08358 28.125H27.9569C29.813 28.1251 31.6102 27.3529 33.0344 25.9433C34.4586 24.5337 35.4192 22.5763 35.7485 20.4131L36.9914 12.2494C37.1155 11.4394 37.0876 10.607 36.9097 9.8112C36.7319 9.01539 36.4084 8.27564 35.9623 7.64438ZM33.8833 11.5837L32.6388 19.7475C32.4411 21.0469 31.8637 22.2225 31.0078 23.0685C30.1518 23.9145 29.0718 24.377 27.9569 24.375H8.58008L7.09017 9.375H32.3158C32.5484 9.37335 32.7785 9.43241 32.9896 9.54798C33.2007 9.66354 33.3878 9.83277 33.5374 10.0436C33.6871 10.2545 33.7956 10.5018 33.8554 10.768C33.9152 11.0342 33.9247 11.3127 33.8833 11.5837Z" fill="#FC2A43"/>
<path d="M11.0833 45C12.8322 45 14.25 43.3211 14.25 41.25C14.25 39.1789 12.8322 37.5 11.0833 37.5C9.33444 37.5 7.91667 39.1789 7.91667 41.25C7.91667 43.3211 9.33444 45 11.0833 45Z" fill="#FC2A43"/>
<path d="M26.9167 45C28.6656 45 30.0833 43.3211 30.0833 41.25C30.0833 39.1789 28.6656 37.5 26.9167 37.5C25.1678 37.5 23.75 39.1789 23.75 41.25C23.75 43.3211 25.1678 45 26.9167 45Z" fill="#FC2A43"/>
</g>
<defs>
<clipPath id="clip0_121_5">
<rect width="38" height="45" fill="white"/>
</clipPath>
</defs>
</svg>
