<svg width="40" height="50" viewBox="0 0 40 50" fill="none" xmlns="http://www.w3.org/2000/svg">
<g clip-path="url(#clip0_2_121)">
<path d="M38.5349 8.63794H29.4597V16.3966H38.5349V8.63794Z" fill="white"/>
<path d="M24.6196 38.8966C20.2828 38.8966 16.7544 34.3717 16.7544 28.8104C16.7544 23.249 20.2828 18.7242 24.6196 18.7242C28.9563 18.7242 32.4848 23.249 32.4848 28.8104C32.4848 34.3717 28.9563 38.8966 24.6196 38.8966Z" fill="white"/>
<path d="M39.1399 44.2019V8.63794L37.7974 1.65518H11.4418L10.0992 8.54251V44.2019L9.49422 46.5295V49.7586H39.7449V46.5295L39.1399 44.2019ZM11.3093 40.4483V17.1724H37.9299V40.4483H35.5098V42H37.9299V43.5517H11.3093V42H34.2998V40.4483H11.3093ZM17.9644 9.4138V15.6207H11.3093V9.4138H17.9644ZM37.9299 15.6207H19.1744V9.4138H37.9299V15.6207ZM36.8524 3.20691L37.7599 7.86208H11.4793L12.3868 3.20691H36.8524ZM38.5349 48.2069H10.7042V46.7809L11.1405 45.1035H38.0993L38.5349 46.7809V48.2069Z" fill="#C8C8C8"/>
<path d="M24.6196 21.8276C21.6175 21.8276 19.1744 24.9598 19.1744 28.8104C19.1744 32.661 21.6175 35.7931 24.6196 35.7931C26.4352 35.7931 28.1268 34.6092 29.1336 32.6897H32.4848V31.1379H29.4597V26.4828H32.4848V24.9311H29.1336C28.1268 23.0116 26.4352 21.8276 24.6196 21.8276ZM24.6196 34.2414C22.2842 34.2414 20.3845 31.8044 20.3845 28.8104C20.3845 25.8163 22.2842 23.3793 24.6196 23.3793C26.1037 23.3793 27.4861 24.3918 28.2497 26.0219V31.5996C27.4861 33.2289 26.1037 34.2414 24.6196 34.2414Z" fill="#C8C8C8"/>
<path d="M21.5945 13.2931H22.9159C23.1663 14.1939 23.8319 14.8448 24.6196 14.8448C25.4073 14.8448 26.0728 14.1939 26.3233 13.2931H27.6447V11.7414H26.3233C26.0728 10.8406 25.4073 10.1897 24.6196 10.1897C23.8319 10.1897 23.1663 10.8406 22.9159 11.7414H21.5945V13.2931ZM24.6196 11.7414C24.9529 11.7414 25.2246 12.089 25.2246 12.5173C25.2246 12.9455 24.9529 13.2931 24.6196 13.2931C24.2862 13.2931 24.0146 12.9455 24.0146 12.5173C24.0146 12.089 24.2862 11.7414 24.6196 11.7414Z" fill="#C8C8C8"/>
<path d="M31.8798 11.7414H30.6697V13.2931H31.8798V11.7414Z" fill="#C8C8C8"/>
<path d="M34.2998 11.7414H33.0898V13.2931H34.2998V11.7414Z" fill="#C8C8C8"/>
<path d="M36.7199 11.7414H35.5099V13.2931H36.7199V11.7414Z" fill="#C8C8C8"/>
<path d="M20.9895 4.75864H13.7293V6.31036H20.9895V4.75864Z" fill="#C8C8C8"/>
<path d="M23.4096 4.75864H22.1995V6.31036H23.4096V4.75864Z" fill="#C8C8C8"/>
<path d="M16.7544 11.7414H12.5193V13.2931H16.7544V11.7414Z" fill="#C8C8C8"/>
</g>
<defs>
<clipPath id="clip0_2_121">
<rect width="38.7209" height="49.6552" fill="white" transform="translate(0.459335)"/>
</clipPath>
</defs>
</svg>
